<svg width="2310" height="2310" xmlns="http://www.w3.org/2000/svg" xmlns:xlink="http://www.w3.org/1999/xlink" xml:space="preserve" overflow="hidden"><g transform="translate(-1045 -83)"><g><g><g><path d="M689.543 787.007C653.257 984.377 605.414 1127.97 546.016 1217.18 499.729 1286.13 449.029 1320.61 393.821 1320.61 379.09 1320.61 360.963 1316.16 339.406 1307.34L339.406 1259.72C349.915 1261.31 362.264 1262.1 376.455 1262.1 402.202 1262.1 422.964 1254.99 438.774 1240.73 457.696 1223.37 467.156 1203.88 467.156 1182.26 467.156 1167.49 459.759 1137.18 445.06 1091.33L347.28 786.88 434.806 786.88 504.967 1014.6C520.745 1066.28 527.317 1102.38 524.682 1122.95 563.095 1020.16 589.89 908.153 605.128 787.07L689.512 787.07M303.151 1180.73 214.07 1180.73C210.927 1029.93 202.26 888.184 188.037 755.323L187.307 755.323 51.6523 1180.73-16.2227 1180.73-151.052 755.323-151.846 755.323C-161.846 882.882-168.132 1024.63-170.767 1180.73L-252.007 1180.73C-246.769 990.949-233.594 813.103-212.609 647.066L-102.193 647.066 26.35 1039.14 27.1436 1039.14 156.481 647.066 262.134 647.066C285.246 841.548 298.929 1019.46 303.088 1180.73" fill="#00758F" transform="matrix(1 0 0 1.00022 1297.51 703.095)"/><path d="M1875.61 1180.67 1622.49 1180.67 1622.49 647.003 1707.67 647.003 1707.67 1114.95 1875.61 1114.95 1875.61 1180.61M1239.08 1073.84C1217.49 1039.05 1206.73 983.234 1206.73 906.248 1206.73 771.863 1247.5 704.623 1328.96 704.623 1371.56 704.623 1402.83 720.719 1422.8 752.847 1444.33 787.641 1455.12 843.008 1455.12 918.915 1455.12 1054.38 1414.36 1122.16 1332.9 1122.16 1290.32 1122.16 1259.02 1106.09 1239.08 1073.9M1556.08 1193.53 1458.23 1145.14C1466.93 1137.97 1475.22 1130.22 1482.68 1121.33 1524.27 1072.35 1545.03 999.87 1545.03 903.899 1545.03 727.322 1475.88 639.002 1337.63 639.002 1269.81 639.002 1216.96 661.384 1179.11 706.242 1137.52 755.26 1116.79 827.516 1116.79 922.883 1116.79 1016.7 1135.21 1085.52 1171.97 1129.24 1205.49 1168.76 1256.19 1188.54 1324.1 1188.54 1349.44 1188.54 1372.67 1185.43 1393.79 1179.18L1521.19 1253.53 1555.92 1193.53M1079.71 1032.73C1079.71 1078 1063.14 1115.14 1030.06 1144.22 996.981 1173.14 952.503 1187.68 896.851 1187.68 844.786 1187.68 794.308 1170.95 745.418 1137.84L768.308 1092C810.372 1113.08 848.437 1123.59 882.597 1123.59 914.661 1123.59 939.741 1116.44 957.9 1102.32 975.996 1088.06 986.885 1068.22 986.885 1043.05 986.885 1011.36 964.821 984.282 924.407 961.551 886.955 940.655 849.641 919.511 812.468 898.121 772.054 868.533 751.767 836.818 751.767 784.562 751.767 741.323 766.879 706.369 797.07 679.797 827.325 653.13 866.374 639.796 914.185 639.796 963.615 639.796 1008.54 653.034 1049.01 679.416L1028.44 725.227C993.838 710.496 959.678 703.099 925.995 703.099 898.692 703.099 877.612 709.703 862.945 722.909 848.183 736.021 839.072 752.91 839.072 773.482 839.072 805.102 861.612 832.532 903.169 855.707 940.947 876.247 1017.43 919.963 1017.43 919.963 1059.01 949.487 1079.75 980.949 1079.75 1032.79M1936.25 1180.67 1950.37 1180.67 1950.37 1126.38 1968.82 1126.38 1968.82 1115.27 1917.07 1115.27 1917.07 1126.38 1936.25 1126.38ZM2043.65 1180.67 2056.95 1180.67 2056.95 1115.27 2036.95 1115.27 2020.66 1159.84 2002.91 1115.27 1983.64 1115.27 1983.64 1180.67 1996.25 1180.67 1996.25 1130.89 1996.95 1130.89 2015.52 1180.67 2025.11 1180.67 2043.65 1130.89Z" fill="#F29111" transform="matrix(1 0 0 1.00022 1297.51 703.095)"/><path d="M1167.65-251.721C1145.14-252.039 1125.52-243.562 1115.4-218.641 1098.03-176.703 1141.11-135.464 1155.94-114.162 1166.86-99.3362 1181.02-82.542 1188.7-65.8114 1193.21-54.8587 1194.51-43.2076 1199.02-31.6199 1209.3-3.23819 1218.92 28.35 1232.45 54.827 1239.5 68.3829 1247.21 82.5738 1256.23 94.7646 1261.4 101.908 1270.39 105.082 1272.32 116.733 1263.34 129.591 1262.64 148.957 1257.53 165.116 1234.35 237.975 1243.37 328.263 1276.16 381.789 1286.45 397.884 1310.89 433.377 1343.72 419.822 1372.67 408.234 1366.26 371.471 1374.58 339.248 1376.52 331.438 1375.21 326.327 1379.09 321.152L1379.09 322.485C1388.07 340.518 1397.12 357.883 1405.47 376.011 1425.44 407.567 1460.14 440.457 1489.09 462.362 1504.49 474.014 1516.71 493.982 1536.01 501.094L1536.01 499.125 1534.74 499.125C1530.87 493.347 1525.09 490.744 1519.95 486.268 1508.36 474.648 1495.53 460.458 1486.52 447.537 1459.53 411.472 1435.69 371.471 1414.52 330.2 1404.2 310.168 1395.21 288.262 1386.83 268.293 1382.99 260.579 1382.99 248.928 1376.55 245.086 1366.86 259.245 1352.74 271.532 1345.69 288.865 1333.47 316.644 1332.2 350.804 1327.66 386.265 1325.12 386.932 1326.39 386.265 1325.12 387.535 1304.55 382.392 1297.47 361.121 1289.72 343.089 1270.42 297.278 1267.18 223.721 1283.94 170.894 1288.39 157.37 1307.75 114.829 1300.01 101.908 1296.13 89.5899 1283.27 82.542 1276.2 72.8592 1267.23 59.8459 1259.5 46.0298 1253.08 31.5882 1237.65-4.50807 1229.91-44.5092 1213.21-80.6055 1205.49-97.4314 1191.94-114.797 1181.05-130.258 1168.8-147.687 1155.33-159.941 1145.65-180.545 1142.48-187.656 1137.97-199.276 1143.11-206.99 1144.35-212.165 1146.95-214.101 1152.13-215.403 1160.41-222.483 1184.26-213.498 1192.61-209.625 1216.42-199.974 1236.35-190.894 1256.26-177.402 1265.24-170.926 1274.89-158.671 1286.48-155.433L1300.01-155.433C1320.58-150.925 1343.75-154.163 1363.05-148.353 1397.12-137.401 1427.98-121.273 1455.66-103.876 1540.86-49.3985 1610.08 26.7049 1656.27 116.67 1664.02 131.496 1667.25 145.052 1674.3 160.481 1687.83 192.164 1704.56 224.387 1718.05 255.309 1731.54 285.627 1744.43 316.58 1763.76 341.724 1773.35 355.248 1811.96 362.36 1829.32 369.439 1842.18 375.217 1862.12 380.392 1873.7 387.471 1895.61 400.996 1917.39 416.488 1937.99 431.346 1948.28 439.092 1980.41 455.188 1982.34 468.109 1930.91 466.839 1891.04 471.982 1857.58 486.204 1847.96 490.046 1832.53 490.046 1831.23 502.3 1836.4 507.443 1837 515.824 1841.54 522.936 1849.26 535.857 1862.72 553.222 1874.97 562.302 1888.5 572.62 1901.99 582.906 1916.15 591.922 1941.23 607.478 1969.52 616.462 1993.93 631.923 2008.12 640.939 2022.25 652.558 2036.41 662.241 2043.45 667.384 2047.93 675.797 2056.98 678.972L2056.98 677.003C2052.44 671.225 2051.17 662.844 2046.69 656.368 2040.28 649.955 2033.84 644.145 2027.39 637.701 2008.55 612.729 1986 590.781 1960.53 572.62 1939.93 558.365 1894.88 539 1886.56 515.221L1885.26 513.919C1899.39 512.618 1916.15 507.443 1929.67 503.538 1951.48 497.728 1971.45 499.03 1993.96 493.252 2004.25 490.649 2014.53 487.411 2024.88 484.268L2024.88 478.395C2013.23 466.839 2004.91 451.314 1992.72 440.362 1959.96 412.012 1923.9 384.297 1886.59 361.026 1866.59 348.137 1840.88 339.787 1819.67 328.803 1811.99 324.93 1799.13 323.025 1794.59 316.549 1783.04 302.358 1776.56 283.691 1768.24 266.896 1749.23 230.18 1731.64 192.744 1715.51 154.671 1703.92 129.527 1696.84 104.416 1682.71 81.1769 1616.43-28.477 1544.42-94.8598 1433.82-160.005 1410.01-173.561 1381.72-179.37 1351.53-186.45 1335.4-187.116 1319.37-188.355 1303.28-188.99 1292.96-193.561 1282.64-205.815 1273.66-211.625 1250.73-226.133 1205.21-251.214 1167.72-251.785ZM1326.32-92.3201C1315.4-92.3201 1307.72-90.9867 1299.97-89.0819L1299.97-87.812 1301.21-87.812C1306.39-77.4943 1315.4-70.3512 1321.78-61.3351 1326.96-51.0173 1331.47-40.7313 1336.61-30.4136L1337.88-31.6834C1346.93-38.1281 1351.44-48.4458 1351.44-63.9383 1347.53-68.4781 1346.93-72.9545 1343.69-77.4943 1339.85-83.9072 1331.47-87.1453 1326.32-92.3201Z" fill="#00758F" transform="matrix(1 0 0 1.00022 1297.51 703.095)"/></g></g></g></g></svg>